<svg id="visual" viewBox="0 0 900 450" width="900" height="450" xmlns="http://www.w3.org/2000/svg" xmlns:xlink="http://www.w3.org/1999/xlink" version="1.1"><path d="M0 185L30 184.5C60 184 120 183 180 189.5C240 196 300 210 360 221.8C420 233.7 480 243.3 540 248C600 252.7 660 252.3 720 234.7C780 217 840 182 870 164.5L900 147L900 0L870 0C840 0 780 0 720 0C660 0 600 0 540 0C480 0 420 0 360 0C300 0 240 0 180 0C120 0 60 0 30 0L0 0Z" fill="#3e95c0" stroke-linecap="round" stroke-linejoin="miter"></path></svg>